<svg width="369" height="66" viewBox="0 0 369 66" fill="none" xmlns="http://www.w3.org/2000/svg">
<g filter="url(#filter0_i)">
<path d="M30.3718 65.7909C24.2772 65.7909 16.9823 64.1273 14.5272 56.1185L0.0885158 2.88964C0.0338434 2.71465 0 2.5422 0 2.46105C0 1.60641 0.619619 1.08398 1.49958 1.08398H13.8451C14.7251 1.08398 15.4332 1.77632 15.6129 2.63857L27.2633 49.7784C27.6929 51.2848 29.255 52.0507 30.2599 52.0507C31.2856 52.0507 32.9466 51.371 33.3606 49.8722L45.1855 2.63857C45.3651 1.77632 46.0706 1.08398 46.9506 1.08398H59.2988C60.1787 1.08398 60.7957 1.60641 60.7957 2.46105C60.7957 2.5422 60.7124 2.71465 60.7124 2.88964L46.2112 56.1159C43.7457 64.1273 36.4613 65.7909 30.3718 65.7909Z" fill="#00447A"/>
<path d="M276.13 0.112793C282.233 0.112793 289.52 1.77136 291.975 9.78269L306.442 63.0369C306.442 63.2093 306.533 63.3792 306.533 63.4832C306.533 64.3252 305.919 64.8451 305.029 64.8451H293.141C292.261 64.8451 291.556 64.1654 291.387 63.2956L279.244 16.3764C278.812 14.8751 277.255 14.1041 276.245 14.1041C275.222 14.1041 273.561 14.7863 273.149 16.2927L260.991 63.293C260.819 64.1654 260.111 64.8425 259.226 64.8425H247.24C246.349 64.8425 245.74 64.3227 245.74 63.4807C245.74 63.3767 245.826 63.2093 245.826 63.0343L260.294 9.78016C262.756 1.77136 270.043 0.112793 276.13 0.112793Z" fill="#00447A"/>
<path d="M315.858 22.5479V63.2715C315.858 64.2175 316.744 64.9149 317.715 64.9149H329.243C330.214 64.9149 331.003 64.2175 331.003 63.2715V24.6984C331.003 15.8883 334.46 13.3979 342.429 13.3979C350.406 13.3979 353.765 15.8883 353.765 24.6984L353.851 63.2715C353.851 64.2175 354.645 64.9149 355.616 64.9149H367.224C368.206 64.9149 369 64.2175 369 63.2715L368.914 22.5479C368.914 2.87079 356.522 0 342.432 0C328.339 0 315.858 2.87079 315.858 22.5479Z" fill="#00447A"/>
<path d="M123.219 43.4416V2.72557C123.219 1.77202 122.329 1.07715 121.358 1.07715H109.835C108.864 1.07715 108.072 1.76948 108.072 2.72557V41.2961C108.072 50.1139 104.617 52.6043 96.6431 52.6043C88.6687 52.6043 85.3103 50.1139 85.3103 41.2961L85.2269 2.72557C85.2269 1.77202 84.4329 1.07715 83.4618 1.07715H71.853C70.8715 1.07715 70.0801 1.76948 70.0801 2.72557L70.166 43.4416C70.166 63.1263 82.5558 65.9996 96.6457 65.9996C110.73 65.9996 123.219 63.1263 123.219 43.4416Z" fill="#00447A"/>
<path d="M201.346 2.69103V26.228H204.335L220.403 2.28019C220.841 1.59293 221.374 1.24803 222.351 1.24803H236.425C237.396 1.24803 237.833 1.67662 237.833 2.19904C237.833 2.53887 237.667 2.96492 237.396 3.40619L217.599 32.5351L237.852 62.861C238.122 63.2084 238.203 63.5482 238.203 63.812C238.203 64.337 237.766 64.6895 236.977 64.6895H222.733C221.671 64.6895 221.234 64.1594 220.786 63.4671L204.134 38.8498H201.343V62.9675C201.343 63.9084 200.549 64.692 199.573 64.692H187.558C186.587 64.692 185.793 63.9084 185.793 62.9675V2.69103C185.793 1.74255 186.587 1.06543 187.558 1.06543H199.573C200.552 1.06543 201.346 1.74255 201.346 2.69103Z" fill="#00447A"/>
<path d="M163.523 64.7127C148.813 64.7127 137.965 62.6965 137.965 43.0575V2.69141C137.965 1.74293 138.756 1.05566 139.73 1.05566H151.31C152.286 1.05566 153.088 1.74293 153.088 2.69141V40.6356C153.088 49.0958 155.301 50.5413 162.573 50.7264H176.025C176.871 50.7264 177.558 51.396 177.558 52.2328V63.2189C177.558 64.0508 176.871 64.7203 176.025 64.7203L163.523 64.7127Z" fill="#00447A"/>
</g>
<defs>
<filter id="filter0_i" x="0" y="0" width="369" height="69.9996" filterUnits="userSpaceOnUse" color-interpolation-filters="sRGB">
<feFlood flood-opacity="0" result="BackgroundImageFix"/>
<feBlend mode="normal" in="SourceGraphic" in2="BackgroundImageFix" result="shape"/>
<feColorMatrix in="SourceAlpha" type="matrix" values="0 0 0 0 0 0 0 0 0 0 0 0 0 0 0 0 0 0 127 0" result="hardAlpha"/>
<feOffset dy="4"/>
<feGaussianBlur stdDeviation="2"/>
<feComposite in2="hardAlpha" operator="arithmetic" k2="-1" k3="1"/>
<feColorMatrix type="matrix" values="0 0 0 0 0 0 0 0 0 0 0 0 0 0 0 0 0 0 0.25 0"/>
<feBlend mode="normal" in2="shape" result="effect1_innerShadow"/>
</filter>
</defs>
</svg>

