<svg width="212" height="34" viewBox="0 0 212 34" fill="none" xmlns="http://www.w3.org/2000/svg">
<path d="M60.6968 9.83436L57.2247 10.5909C57.195 10.5628 57.1801 10.5348 57.1801 10.5068C57.1801 10.4508 57.1801 10.4087 57.1801 10.3807C57.1801 10.3527 57.1801 10.3247 57.1801 10.2967C57.2098 10.2687 57.2247 10.2406 57.2247 10.2126C57.2247 10.1846 57.2247 10.1566 57.2247 10.1286C57.2247 10.1005 57.2247 10.0725 57.2247 10.0445C57.195 9.14792 57.106 8.29337 56.9576 7.48084C56.8389 6.66831 56.6163 5.88381 56.2898 5.12732C55.9634 4.37083 55.4292 3.81046 54.6873 3.44623C53.9751 3.05397 53.0552 2.85785 51.9274 2.85785C50.7404 2.85785 49.5385 3.13803 48.3217 3.69839C47.1049 4.25876 45.8882 5.11331 44.6715 6.26205C43.4844 7.38277 42.4161 8.83973 41.4664 10.6329C40.5168 12.426 39.6858 14.5694 38.9736 17.063C38.291 19.5286 37.9053 21.672 37.8162 23.4932C37.7272 25.2863 37.9646 26.7573 38.5285 27.9061C39.122 29.0267 39.8639 29.8673 40.7542 30.4277C41.6445 30.9881 42.6832 31.2682 43.8702 31.2682C44.9979 31.2682 46.0366 31.0722 46.9863 30.6799C47.936 30.2596 48.8114 29.6571 49.6126 28.8727C50.4139 28.0601 51.1261 27.2196 51.7493 26.3511C52.4022 25.4825 52.9809 24.5719 53.4854 23.6193C53.4854 23.6193 53.5003 23.6052 53.5299 23.5773C53.5299 23.5493 53.5299 23.5212 53.5299 23.4932L56.6905 24.2917C56.0673 25.6646 55.2956 26.9254 54.3757 28.0742C53.4854 29.223 52.4467 30.2736 51.2597 31.2262C50.0727 32.1788 48.7965 32.8793 47.4314 33.3276C46.096 33.7758 44.6418 34 43.069 34C41.2587 34 39.7155 33.6358 38.4394 32.9073C37.1633 32.1788 36.1395 31.0722 35.3679 29.5871C34.5666 28.1021 34.166 26.3231 34.166 24.2497C34.1957 22.1483 34.5815 19.7528 35.3234 17.063C36.095 14.3733 37.0595 11.9918 38.2169 9.91842C39.4039 7.81706 40.8136 6.0239 42.4458 4.53894C44.078 3.05397 45.7398 1.93325 47.4314 1.17676C49.1526 0.420272 50.9184 0.0420272 52.7287 0.0420272C54.2718 0.0420272 55.5776 0.280181 56.646 0.756491C57.7439 1.2328 58.6046 1.94727 59.2278 2.89988C59.851 3.85249 60.2813 4.90317 60.5187 6.05192C60.7562 7.20066 60.8007 8.47548 60.6523 9.87639L60.6968 9.83436ZM77.7492 0C79.5594 0.0280177 81.1025 0.420272 82.3787 1.17676C83.6547 1.93325 84.6786 3.05397 85.4502 4.53894C86.2217 6.0239 86.6076 7.81706 86.6076 9.91842C86.6076 11.9918 86.2217 14.3733 85.4502 17.063C84.7082 19.7528 83.7289 22.1483 82.5122 24.2497C81.3251 26.3231 79.9451 28.1021 78.3724 29.5871C76.7401 31.0722 75.0634 32.1788 73.3422 32.9073C71.6506 33.6358 69.8997 34 68.0895 34C66.2791 34 64.736 33.6358 63.4599 32.9073C62.1837 32.1788 61.1599 31.0722 60.3884 29.5871C59.5871 28.1021 59.1865 26.3231 59.1865 24.2497C59.2161 22.1483 59.6019 19.7528 60.3438 17.063C61.1154 14.3733 62.08 11.9918 63.2373 9.91842C64.4244 7.81706 65.8339 6.0239 67.4662 4.53894C69.0984 3.05397 70.7603 1.93325 72.4519 1.17676C74.1731 0.420272 75.9388 0.0420272 77.7492 0.0420272V0ZM76.9479 2.81582C75.7607 2.84384 74.5588 3.13803 73.3422 3.69839C72.1254 4.25876 70.9086 5.11331 69.692 6.26205C68.5048 7.38277 67.4365 8.83973 66.4869 10.6329C65.5372 12.426 64.7063 14.5694 63.9941 17.063C63.3115 19.5286 62.9257 21.672 62.8367 23.4932C62.7477 25.2863 62.985 26.7573 63.549 27.9061C64.1424 29.0267 64.8844 29.8673 65.7747 30.4277C66.665 30.9881 67.7036 31.2682 68.8907 31.2682C69.4842 31.2682 70.0777 31.1982 70.6713 31.0581C71.2647 30.918 71.8732 30.7078 72.4964 30.4277C73.0899 30.1476 73.6834 29.7973 74.277 29.377C74.8704 28.9567 75.464 28.4665 76.0576 27.9061C77.2742 26.7573 78.3575 25.2863 79.307 23.4932C80.2865 21.672 81.1174 19.5286 81.8 17.063C82.5122 14.5694 82.898 12.426 82.9574 10.6329C83.0464 8.83973 82.7941 7.38277 82.2006 6.26205C81.6367 5.11331 80.9244 4.25876 80.0639 3.69839C79.2033 3.13803 78.1645 2.85785 76.9479 2.85785V2.81582ZM95.034 3.65637L86.6208 33.3696H82.9705L92.2297 0.672436H98.0166L104.516 26.4351H104.605L111.905 0.672436H115.555L106.296 33.3696H102.646L95.1231 3.65637H95.034ZM121.228 3.65637L112.815 33.3696H109.165L118.424 0.672436H124.211L130.71 26.4351H130.799L138.099 0.672436H141.75L132.49 33.3696H128.84L121.317 3.65637H121.228ZM163.403 0.672436L162.557 3.61434H147.422L144.262 14.7515H155.079L154.233 17.6935H143.416L139.81 30.4277H155.969L155.168 33.3696H135.359L144.618 0.672436H163.403ZM186.712 9.83436L183.24 10.5909C183.21 10.5628 183.196 10.5348 183.196 10.5068C183.196 10.4508 183.196 10.4087 183.196 10.3807C183.196 10.3527 183.196 10.3247 183.196 10.2967C183.225 10.2687 183.24 10.2406 183.24 10.2126C183.24 10.1846 183.24 10.1566 183.24 10.1286C183.24 10.1005 183.24 10.0725 183.24 10.0445C183.21 9.14792 183.121 8.29337 182.973 7.48084C182.854 6.66831 182.631 5.88381 182.306 5.12732C181.979 4.37083 181.444 3.81046 180.703 3.44623C179.991 3.05397 179.07 2.85785 177.943 2.85785C176.755 2.85785 175.553 3.13803 174.337 3.69839C173.12 4.25876 171.903 5.11331 170.686 6.26205C169.499 7.38277 168.431 8.83973 167.481 10.6329C166.532 12.426 165.701 14.5694 164.989 17.063C164.306 19.5286 163.92 21.672 163.831 23.4932C163.742 25.2863 163.98 26.7573 164.543 27.9061C165.137 29.0267 165.879 29.8673 166.769 30.4277C167.659 30.9881 168.698 31.2682 169.885 31.2682C171.013 31.2682 172.052 31.0722 173.002 30.6799C173.951 30.2596 174.827 29.6571 175.628 28.8727C176.43 28.0601 177.142 27.2196 177.765 26.3511C178.417 25.4825 178.996 24.5719 179.501 23.6193C179.501 23.6193 179.515 23.6052 179.546 23.5773C179.546 23.5493 179.546 23.5212 179.546 23.4932L182.706 24.2917C182.083 25.6646 181.311 26.9254 180.391 28.0742C179.501 29.223 178.462 30.2736 177.275 31.2262C176.087 32.1788 174.812 32.8793 173.447 33.3276C172.112 33.7758 170.657 34 169.084 34C167.274 34 165.73 33.6358 164.454 32.9073C163.178 32.1788 162.155 31.0722 161.383 29.5871C160.582 28.1021 160.181 26.3231 160.181 24.2497C160.211 22.1483 160.597 19.7528 161.338 17.063C162.11 14.3733 163.074 11.9918 164.232 9.91842C165.419 7.81706 166.829 6.0239 168.461 4.53894C170.093 3.05397 171.755 1.93325 173.447 1.17676C175.168 0.420272 176.933 0.0420272 178.744 0.0420272C180.287 0.0420272 181.593 0.280181 182.662 0.756491C183.759 1.2328 184.62 1.94727 185.244 2.89988C185.867 3.85249 186.297 4.90317 186.534 6.05192C186.771 7.20066 186.815 8.47548 186.668 9.87639L186.712 9.83436ZM212 0.672436L211.154 3.61434H201.85L193.437 33.3696H189.787L198.2 3.61434H188.896L189.742 0.672436H212Z" fill="#00A0D1"/>
<path d="M16.2784 34C13.0118 34 9.10201 33.1258 7.78618 28.9177L0.0474419 0.948775C0.0181391 0.856829 0 0.766215 0 0.723573C0 0.274504 0.332098 0 0.803734 0H7.42059C7.89223 0 8.27177 0.363785 8.36805 0.816851L14.6123 25.5863C14.8426 26.3778 15.6798 26.7802 16.2184 26.7802C16.7682 26.7802 17.6584 26.4231 17.8803 25.6356L24.2181 0.816851C24.3144 0.363785 24.6925 0 25.1642 0H31.7824C32.254 0 32.5847 0.274504 32.5847 0.723573C32.5847 0.766215 32.5401 0.856829 32.5401 0.948775L24.7679 28.9163C23.4464 33.1258 19.5422 34 16.2784 34Z" fill="#00447A"/>
</svg>
